<svg version="1.1" viewBox="0.0 0.0 960.0 540.0" fill="none" stroke="none" stroke-linecap="square" stroke-miterlimit="10" xmlns:xlink="http://www.w3.org/1999/xlink" xmlns="http://www.w3.org/2000/svg"><clipPath id="p.0"><path d="m0 0l960.0 0l0 540.0l-960.0 0l0 -540.0z" clip-rule="nonzero"/></clipPath><g clip-path="url(#p.0)"><path fill="#000000" d="m0 0l960.0 0l0 540.0l-960.0 0z" fill-rule="evenodd"/><path fill="#000000" fill-opacity="0.0" d="m190.50394 227.98425l578.99207 0l0 42.015747l-578.99207 0z" fill-rule="evenodd"/><path fill="#ffffff" d="m390.7437 254.90425l0 -7.8125l-4.21875 0l0 -1.25l5.75 0l0 9.0625l-1.53125 0zm0.59375 -10.96875q-0.515625 0 -0.875 -0.328125q-0.359375 -0.328125 -0.359375 -0.859375q0 -0.546875 0.359375 -0.875q0.359375 -0.328125 0.875 -0.328125q0.53125 0 0.875 0.328125q0.359375 0.328125 0.359375 0.875q0 0.53125 -0.359375 0.859375q-0.34375 0.328125 -0.875 0.328125zm6.443756 10.96875l0 -9.0625l1.265625 0l0.140625 1.546875l0.0625 0q0.71875 -0.765625 1.53125 -1.265625q0.828125 -0.515625 1.890625 -0.515625q1.609375 0 2.359375 0.9375q0.765625 0.9375 0.765625 2.71875l0 5.640625l-1.515625 0l0 -5.421875q0 -1.296875 -0.5 -1.921875q-0.484375 -0.625 -1.59375 -0.625q-0.8125 0 -1.453125 0.421875q-0.625 0.40625 -1.421875 1.21875l0 6.328125l-1.53125 0zm14.521881 0.21875q-1.78125 0 -2.859375 -1.234375q-1.078125 -1.234375 -1.078125 -3.5q0 -1.46875 0.578125 -2.546875q0.59375 -1.078125 1.53125 -1.65625q0.9375 -0.578125 2.015625 -0.578125q0.796875 0 1.453125 0.3125q0.671875 0.3125 1.25 0.875l0.046875 0l-0.078125 -1.6875l0 -3.484375l1.53125 0l0 13.28125l-1.265625 0l-0.125 -1.1875l-0.0625 0q-0.53125 0.578125 -1.3125 1.0q-0.78125 0.40625 -1.625 0.40625zm0.3125 -1.28125q0.671875 0 1.296875 -0.34375q0.640625 -0.34375 1.25 -1.015625l0 -4.515625q-0.609375 -0.578125 -1.203125 -0.8125q-0.578125 -0.25 -1.171875 -0.25q-0.796875 0 -1.4375 0.4375q-0.640625 0.4375 -1.03125 1.21875q-0.375 0.765625 -0.375 1.8125q0 1.625 0.703125 2.546875q0.71875 0.921875 1.96875 0.921875zm8.256256 4.9687347q-0.296875 0 -0.625 -0.0625q-0.3125 -0.0625 -0.5625 -0.125l0.3125 -1.21875q0.1875 0.0625 0.40625 0.09375q0.21875 0.03125 0.421875 0.03125q0.953125 0 1.546875 -0.546875q0.59375 -0.546875 0.9375 -1.3906097l0.28125 -0.671875l-4.234375 -9.078125l1.546875 0l2.21875 5.015625q0.25 0.59375 0.53125 1.28125q0.296875 0.671875 0.578125 1.34375l0.078125 0q0.25 -0.65625 0.5 -1.328125q0.25 -0.6875 0.46875 -1.296875l1.984375 -5.015625l1.453125 0l-4.0 9.8125q-0.328125 0.89060974 -0.84375 1.6093597q-0.5 0.71875 -1.234375 1.125q-0.734375 0.421875 -1.765625 0.421875zm13.334381 -10.437485l-0.53125 -0.890625q0.9375 -0.546875 1.4375 -1.359375q0.515625 -0.8125 0.515625 -1.875l-0.359375 -1.453125l1.015625 1.25q-0.234375 0.265625 -0.53125 0.4375q-0.296875 0.15625 -0.625 0.15625q-0.578125 0 -0.953125 -0.359375q-0.375 -0.375 -0.375 -0.953125q0 -0.65625 0.390625 -1.0625q0.40625 -0.40625 1.0 -0.40625q0.71875 0 1.1875 0.609375q0.484375 0.59375 0.484375 1.65625q0 1.390625 -0.703125 2.515625q-0.703125 1.109375 -1.953125 1.734375zm12.396881 6.75q-1.328125 0 -2.484375 -0.421875q-1.15625 -0.4375 -1.96875 -0.984375l0.703125 -1.015625q0.78125 0.5625 1.734375 0.90625q0.953125 0.328125 2.203125 0.328125q1.15625 0 1.71875 -0.421875q0.578125 -0.4375 0.578125 -1.0q0 -0.265625 -0.109375 -0.484375q-0.09375 -0.21875 -0.390625 -0.421875q-0.28125 -0.203125 -0.84375 -0.390625q-0.5625 -0.1875 -1.5 -0.375q-1.765625 -0.375 -2.65625 -1.0q-0.875 -0.640625 -0.875 -1.65625q0 -1.09375 0.9375 -1.828125q0.953125 -0.75 2.828125 -0.75q1.046875 0 2.015625 0.359375q0.96875 0.34375 1.640625 0.796875l-0.75 1.0q-0.609375 -0.453125 -1.40625 -0.703125q-0.78125 -0.25 -1.640625 -0.25q-0.78125 0 -1.234375 0.171875q-0.453125 0.171875 -0.65625 0.484375q-0.1875 0.296875 -0.1875 0.640625q0 0.578125 0.625 0.90625q0.625 0.328125 2.0 0.609375q1.515625 0.3125 2.328125 0.71875q0.8125 0.390625 1.109375 0.890625q0.3125 0.5 0.3125 1.1875q0 0.75 -0.46875 1.359375q-0.46875 0.609375 -1.359375 0.984375q-0.890625 0.359375 -2.203125 0.359375zm22.387512 0q-1.328125 0 -2.484375 -0.421875q-1.15625 -0.4375 -1.96875 -0.984375l0.703125 -1.015625q0.78125 0.5625 1.734375 0.90625q0.953125 0.328125 2.203125 0.328125q1.15625 0 1.71875 -0.421875q0.578125 -0.4375 0.578125 -1.0q0 -0.265625 -0.109375 -0.484375q-0.09375 -0.21875 -0.390625 -0.421875q-0.28125 -0.203125 -0.84375 -0.390625q-0.5625 -0.1875 -1.5 -0.375q-1.765625 -0.375 -2.65625 -1.0q-0.875 -0.640625 -0.875 -1.65625q0 -1.09375 0.9375 -1.828125q0.953125 -0.75 2.828125 -0.75q1.046875 0 2.015625 0.359375q0.96875 0.34375 1.640625 0.796875l-0.75 1.0q-0.609375 -0.453125 -1.40625 -0.703125q-0.78125 -0.25 -1.640625 -0.25q-0.78125 0 -1.234375 0.171875q-0.453125 0.171875 -0.65625 0.484375q-0.1875 0.296875 -0.1875 0.640625q0 0.578125 0.625 0.90625q0.625 0.328125 2.0 0.609375q1.515625 0.3125 2.328125 0.71875q0.8125 0.390625 1.109375 0.890625q0.3125 0.5 0.3125 1.1875q0 0.75 -0.46875 1.359375q-0.46875 0.609375 -1.359375 0.984375q-0.890625 0.359375 -2.203125 0.359375zm12.756226 0q-1.3125 0 -2.078125 -0.46875q-0.765625 -0.484375 -1.09375 -1.3125q-0.328125 -0.84375 -0.328125 -1.96875l0 -4.28125l-2.5625 0l0 -1.15625l2.625 -0.09375l0.203125 -2.921875l1.265625 0l0 2.921875l4.453125 0l0 1.25l-4.453125 0l0 4.3125q0 0.796875 0.203125 1.359375q0.203125 0.5625 0.703125 0.84375q0.515625 0.265625 1.390625 0.265625q0.65625 0 1.171875 -0.109375q0.515625 -0.109375 1.0 -0.296875l0.34375 1.125q-0.609375 0.21875 -1.296875 0.375q-0.6875 0.15625 -1.546875 0.15625zm10.006287 0q-1.359375 0 -2.46875 -0.546875q-1.109375 -0.5625 -1.765625 -1.640625q-0.65625 -1.078125 -0.65625 -2.578125q0 -1.484375 0.65625 -2.546875q0.65625 -1.0625 1.703125 -1.625q1.0625 -0.578125 2.265625 -0.578125q1.3125 0 2.234375 0.53125q0.921875 0.53125 1.40625 1.484375q0.5 0.953125 0.5 2.25q0 0.25 -0.015625 0.5q-0.015625 0.234375 -0.046875 0.421875l-7.671875 0l0 -1.1875l6.75 0l-0.390625 0.421875q0 -1.59375 -0.734375 -2.390625q-0.734375 -0.8125 -1.984375 -0.8125q-0.84375 0 -1.5625 0.421875q-0.71875 0.40625 -1.15625 1.1875q-0.421875 0.78125 -0.421875 1.921875q0 1.171875 0.46875 1.953125q0.46875 0.78125 1.265625 1.1875q0.796875 0.40625 1.8125 0.40625q0.8125 0 1.46875 -0.234375q0.671875 -0.234375 1.296875 -0.625l0.546875 1.0q-0.65625 0.453125 -1.53125 0.765625q-0.875 0.3125 -1.96875 0.3125zm6.1156006 -0.21875l0 -9.0625l1.234375 0l0.125 1.1875l0.046875 0q0.34375 -0.625 0.8125 -1.015625q0.46875 -0.40625 1.25 -0.40625q0.671875 0 1.09375 0.40625q0.4375 0.390625 0.625 1.171875q0.390625 -0.734375 0.859375 -1.15625q0.484375 -0.421875 1.265625 -0.421875q0.953125 0 1.484375 0.71875q0.53125 0.71875 0.53125 2.078125l0 6.5l-1.53125 0l0 -6.375q0 -1.59375 -0.96875 -1.59375q-0.46875 0 -0.78125 0.34375q-0.296875 0.34375 -0.671875 1.0625l0 6.5625l-1.421875 0l0 -6.375q0 -0.78125 -0.21875 -1.1875q-0.203125 -0.40625 -0.703125 -0.40625q-0.46875 0 -0.8125 0.34375q-0.34375 0.34375 -0.6875 1.0625l0 6.5625l-1.53125 0zm27.465668 0.21875q-1.359375 0 -2.46875 -0.546875q-1.109375 -0.5625 -1.765625 -1.640625q-0.65625 -1.078125 -0.65625 -2.578125q0 -1.484375 0.65625 -2.546875q0.65625 -1.0625 1.703125 -1.625q1.0625 -0.578125 2.265625 -0.578125q1.3125 0 2.234375 0.53125q0.921875 0.53125 1.40625 1.484375q0.5 0.953125 0.5 2.25q0 0.25 -0.015625 0.5q-0.015625 0.234375 -0.046875 0.421875l-7.671875 0l0 -1.1875l6.75 0l-0.390625 0.421875q0 -1.59375 -0.734375 -2.390625q-0.734375 -0.8125 -1.984375 -0.8125q-0.84375 0 -1.5625 0.421875q-0.71875 0.40625 -1.15625 1.1875q-0.421875 0.78125 -0.421875 1.921875q0 1.171875 0.46875 1.953125q0.46875 0.78125 1.265625 1.1875q0.796875 0.40625 1.8125 0.40625q0.8125 0 1.46875 -0.234375q0.671875 -0.234375 1.296875 -0.625l0.546875 1.0q-0.65625 0.453125 -1.53125 0.765625q-0.875 0.3125 -1.96875 0.3125zm6.2250366 -0.21875l3.453125 -4.703125l-3.1875 -4.359375l1.703125 0l1.4375 1.984375q0.234375 0.359375 0.515625 0.75q0.28125 0.390625 0.546875 0.78125l0.078125 0q0.234375 -0.390625 0.5 -0.78125q0.28125 -0.40625 0.515625 -0.78125l1.359375 -1.953125l1.625 0l-3.21875 4.484375l3.46875 4.578125l-1.6875 0l-1.578125 -2.09375q-0.28125 -0.390625 -0.59375 -0.8125q-0.296875 -0.4375 -0.609375 -0.828125l-0.0625 0q-0.28125 0.390625 -0.5625 0.8125q-0.28125 0.40625 -0.5625 0.828125l-1.5 2.09375l-1.640625 0zm11.740601 3.8281097l0 -12.89061l1.265625 0l0.140625 1.15625l0.046875 0q0.640625 -0.59375 1.46875 -0.984375q0.828125 -0.40625 1.671875 -0.40625q1.234375 0 2.0625 0.578125q0.828125 0.5625 1.25 1.609375q0.4375 1.03125 0.4375 2.4375q0 1.53125 -0.578125 2.640625q-0.578125 1.09375 -1.515625 1.671875q-0.9375 0.578125 -2.03125 0.578125q-0.625 0 -1.359375 -0.296875q-0.734375 -0.3125 -1.34375 -0.875l-0.0625 0l0.078125 1.71875l0 3.0624847l-1.53125 0zm3.953125 -4.8906097q0.8125 0 1.4375 -0.421875q0.640625 -0.4375 1.0 -1.25q0.359375 -0.8125 0.359375 -1.9375q0 -0.984375 -0.265625 -1.734375q-0.25 -0.75 -0.8125 -1.171875q-0.5625 -0.421875 -1.46875 -0.421875q-0.625 0 -1.3125 0.328125q-0.671875 0.328125 -1.359375 1.03125l0 4.515625q0.65625 0.578125 1.3125 0.828125q0.671875 0.234375 1.109375 0.234375zm11.100037 1.28125q-1.1875 0 -2.203125 -0.546875q-1.015625 -0.5625 -1.640625 -1.625q-0.625 -1.0625 -0.625 -2.5625q0 -1.53125 0.625 -2.59375q0.625 -1.0625 1.640625 -1.625q1.015625 -0.5625 2.203125 -0.5625q1.203125 0 2.21875 0.5625q1.015625 0.5625 1.640625 1.625q0.625 1.0625 0.625 2.59375q0 1.5 -0.625 2.5625q-0.625 1.0625 -1.640625 1.625q-1.015625 0.546875 -2.21875 0.546875zm0 -1.265625q0.875 0 1.53125 -0.4375q0.65625 -0.4375 1.0 -1.21875q0.359375 -0.78125 0.359375 -1.8125q0 -1.046875 -0.359375 -1.828125q-0.34375 -0.796875 -1.0 -1.234375q-0.65625 -0.4375 -1.53125 -0.4375q-0.875 0 -1.515625 0.4375q-0.640625 0.4375 -1.015625 1.234375q-0.359375 0.78125 -0.359375 1.828125q0 1.03125 0.359375 1.8125q0.375 0.78125 1.015625 1.21875q0.640625 0.4375 1.515625 0.4375zm11.193726 1.265625q-0.609375 0 -1.0625 -0.4375q-0.453125 -0.4375 -0.453125 -1.125q0 -0.703125 0.453125 -1.140625q0.453125 -0.4375 1.0625 -0.4375q0.640625 0 1.078125 0.4375q0.4375 0.4375 0.4375 1.140625q0 0.6875 -0.4375 1.125q-0.4375 0.4375 -1.078125 0.4375z" fill-rule="nonzero"/><path fill="#ffffff" d="m376.14056 302.9855q-1.9375 -1.53125 -3.078125 -3.640625q-1.125 -2.125 -1.125 -4.828125q0 -2.703125 1.125 -4.828125q1.140625 -2.125 3.078125 -3.640625l0.84375 0.78125q-1.875 1.5625 -2.765625 3.453125q-0.890625 1.890625 -0.890625 4.234375q0 2.359375 0.890625 4.234375q0.890625 1.875 2.765625 3.453125l-0.84375 0.78125zm4.850006 0.546875l0 -12.890625l1.265625 0l0.140625 1.15625l0.046875 0q0.640625 -0.59375 1.46875 -0.984375q0.828125 -0.40625 1.671875 -0.40625q1.234375 0 2.0625 0.578125q0.828125 0.5625 1.25 1.609375q0.4375 1.03125 0.4375 2.4375q0 1.53125 -0.578125 2.640625q-0.578125 1.09375 -1.515625 1.671875q-0.9375 0.578125 -2.03125 0.578125q-0.625 0 -1.359375 -0.296875q-0.734375 -0.3125 -1.34375 -0.875l-0.0625 0l0.078125 1.71875l0 3.0625l-1.53125 0zm3.953125 -4.890625q0.8125 0 1.4375 -0.421875q0.640625 -0.4375 1.0 -1.25q0.359375 -0.8125 0.359375 -1.9375q0 -0.984375 -0.265625 -1.734375q-0.25 -0.75 -0.8125 -1.171875q-0.5625 -0.421875 -1.46875 -0.421875q-0.625 0 -1.3125 0.328125q-0.671875 0.328125 -1.359375 1.03125l0 4.515625q0.65625 0.578125 1.3125 0.828125q0.671875 0.234375 1.109375 0.234375zm13.084381 1.28125q-1.4375 0 -2.203125 -0.828125q-0.765625 -0.828125 -0.765625 -2.4375l0 -8.984375l-3.09375 0l0 -1.25l4.625 0l0 10.359375q0 0.984375 0.484375 1.4375q0.484375 0.4375 1.28125 0.4375q0.390625 0 0.796875 -0.09375q0.421875 -0.109375 0.921875 -0.328125l0.390625 1.15625q-0.609375 0.21875 -1.15625 0.375q-0.53125 0.15625 -1.28125 0.15625zm8.209381 0q-0.84375 0 -1.5625 -0.296875q-0.703125 -0.3125 -1.109375 -0.890625q-0.40625 -0.578125 -0.40625 -1.375q0 -1.53125 1.53125 -2.328125q1.53125 -0.796875 5.03125 -1.078125q-0.015625 -0.609375 -0.25 -1.125q-0.234375 -0.53125 -0.765625 -0.828125q-0.515625 -0.3125 -1.390625 -0.3125q-0.578125 0 -1.15625 0.15625q-0.5625 0.15625 -1.078125 0.40625q-0.515625 0.25 -0.9375 0.515625l-0.59375 -1.046875q0.4375 -0.296875 1.078125 -0.609375q0.65625 -0.3125 1.390625 -0.5q0.75 -0.203125 1.5625 -0.203125q1.25 0 2.0625 0.46875q0.8125 0.46875 1.203125 1.296875q0.40625 0.828125 0.40625 1.96875l0 5.5625l-1.25 0l-0.125 -1.234375l-0.0625 0q-0.75 0.59375 -1.6875 1.03125q-0.921875 0.421875 -1.890625 0.421875zm0.40625 -1.21875q0.78125 0 1.546875 -0.359375q0.765625 -0.359375 1.53125 -0.984375l0 -2.390625q-1.9375 0.15625 -3.046875 0.46875q-1.109375 0.296875 -1.578125 0.75q-0.453125 0.453125 -0.453125 1.046875q0 0.515625 0.28125 0.84375q0.28125 0.3125 0.734375 0.46875q0.46875 0.15625 0.984375 0.15625zm12.646881 1.21875q-1.421875 0 -2.546875 -0.546875q-1.125 -0.5625 -1.765625 -1.625q-0.640625 -1.0625 -0.640625 -2.5625q0 -1.53125 0.6875 -2.59375q0.6875 -1.0625 1.828125 -1.625q1.15625 -0.5625 2.53125 -0.5625q1.125 0 1.9375 0.40625q0.8125 0.390625 1.359375 0.921875l-0.765625 0.984375q-0.546875 -0.484375 -1.15625 -0.75q-0.59375 -0.28125 -1.3125 -0.28125q-1.046875 0 -1.859375 0.4375q-0.796875 0.4375 -1.234375 1.234375q-0.4375 0.78125 -0.4375 1.828125q0 1.03125 0.421875 1.8125q0.4375 0.78125 1.21875 1.21875q0.796875 0.4375 1.84375 0.4375q0.84375 0 1.546875 -0.328125q0.703125 -0.34375 1.25 -0.8125l0.703125 1.0q-0.75 0.671875 -1.671875 1.046875q-0.921875 0.359375 -1.9375 0.359375zm10.896881 0q-1.359375 0 -2.46875 -0.546875q-1.109375 -0.5625 -1.765625 -1.640625q-0.65625 -1.078125 -0.65625 -2.578125q0 -1.484375 0.65625 -2.546875q0.65625 -1.0625 1.703125 -1.625q1.0625 -0.578125 2.265625 -0.578125q1.3125 0 2.234375 0.53125q0.921875 0.53125 1.40625 1.484375q0.5 0.953125 0.5 2.25q0 0.25 -0.015625 0.5q-0.015625 0.234375 -0.046875 0.421875l-7.671875 0l0 -1.1875l6.75 0l-0.390625 0.421875q0 -1.59375 -0.734375 -2.390625q-0.734375 -0.8125 -1.984375 -0.8125q-0.84375 0 -1.5625 0.421875q-0.71875 0.40625 -1.15625 1.1875q-0.421875 0.78125 -0.421875 1.921875q0 1.171875 0.46875 1.953125q0.46875 0.78125 1.265625 1.1875q0.796875 0.40625 1.8125 0.40625q0.8125 0 1.46875 -0.234375q0.671875 -0.234375 1.296875 -0.625l0.546875 1.0q-0.65625 0.453125 -1.53125 0.765625q-0.875 0.3125 -1.96875 0.3125zm6.771881 -0.21875l0 -13.28125l1.53125 0l0 3.625l-0.09375 2.140625l0.0625 0q0.6875 -0.75 1.5 -1.265625q0.828125 -0.515625 1.890625 -0.515625q1.609375 0 2.359375 0.9375q0.765625 0.9375 0.765625 2.71875l0 5.640625l-1.515625 0l0 -5.421875q0 -1.296875 -0.5 -1.921875q-0.484375 -0.625 -1.59375 -0.625q-0.8125 0 -1.453125 0.421875q-0.625 0.40625 -1.421875 1.21875l0 6.328125l-1.53125 0zm15.053131 0.21875q-1.1875 0 -2.203125 -0.546875q-1.015625 -0.5625 -1.640625 -1.625q-0.625 -1.0625 -0.625 -2.5625q0 -1.53125 0.625 -2.59375q0.625 -1.0625 1.640625 -1.625q1.015625 -0.5625 2.203125 -0.5625q1.203125 0 2.21875 0.5625q1.015625 0.5625 1.640625 1.625q0.625 1.0625 0.625 2.59375q0 1.5 -0.625 2.5625q-0.625 1.0625 -1.640625 1.625q-1.015625 0.546875 -2.21875 0.546875zm0 -1.265625q0.875 0 1.53125 -0.4375q0.65625 -0.4375 1.0 -1.21875q0.359375 -0.78125 0.359375 -1.8125q0 -1.046875 -0.359375 -1.828125q-0.34375 -0.796875 -1.0 -1.234375q-0.65625 -0.4375 -1.53125 -0.4375q-0.875 0 -1.515625 0.4375q-0.640625 0.4375 -1.015625 1.234375q-0.359375 0.78125 -0.359375 1.828125q0 1.03125 0.359375 1.8125q0.375 0.78125 1.015625 1.21875q0.640625 0.4375 1.515625 0.4375zm13.178131 1.265625q-1.4375 0 -2.203125 -0.828125q-0.765625 -0.828125 -0.765625 -2.4375l0 -8.984375l-3.09375 0l0 -1.25l4.625 0l0 10.359375q0 0.984375 0.484375 1.4375q0.484375 0.4375 1.28125 0.4375q0.390625 0 0.796875 -0.09375q0.421875 -0.109375 0.921875 -0.328125l0.390625 1.15625q-0.609375 0.21875 -1.15625 0.375q-0.53125 0.15625 -1.28125 0.15625zm8.678131 0q-1.78125 0 -2.859375 -1.234375q-1.078125 -1.234375 -1.078125 -3.5q0 -1.46875 0.578125 -2.546875q0.59375 -1.078125 1.53125 -1.65625q0.9375 -0.578125 2.015625 -0.578125q0.796875 0 1.453125 0.3125q0.671875 0.3125 1.25 0.875l0.046875 0l-0.078125 -1.6875l0 -3.484375l1.53125 0l0 13.28125l-1.265625 0l-0.125 -1.1875l-0.0625 0q-0.53125 0.578125 -1.3125 1.0q-0.78125 0.40625 -1.625 0.40625zm0.3125 -1.28125q0.671875 0 1.296875 -0.34375q0.640625 -0.34375 1.25 -1.015625l0 -4.515625q-0.609375 -0.578125 -1.203125 -0.8125q-0.578125 -0.25 -1.171875 -0.25q-0.796875 0 -1.4375 0.4375q-0.640625 0.4375 -1.03125 1.21875q-0.375 0.765625 -0.375 1.8125q0 1.625 0.703125 2.546875q0.71875 0.921875 1.96875 0.921875zm11.975006 1.28125q-1.359375 0 -2.46875 -0.546875q-1.109375 -0.5625 -1.765625 -1.640625q-0.65625 -1.078125 -0.65625 -2.578125q0 -1.484375 0.65625 -2.546875q0.65625 -1.0625 1.703125 -1.625q1.0625 -0.578125 2.265625 -0.578125q1.3125 0 2.234375 0.53125q0.921875 0.53125 1.40625 1.484375q0.5 0.953125 0.5 2.25q0 0.25 -0.015625 0.5q-0.015625 0.234375 -0.046875 0.421875l-7.671875 0l0 -1.1875l6.75 0l-0.390625 0.421875q0 -1.59375 -0.734375 -2.390625q-0.734375 -0.8125 -1.984375 -0.8125q-0.84375 0 -1.5625 0.421875q-0.71875 0.40625 -1.15625 1.1875q-0.421875 0.78125 -0.421875 1.921875q0 1.171875 0.46875 1.953125q0.46875 0.78125 1.265625 1.1875q0.796875 0.40625 1.8125 0.40625q0.8125 0 1.46875 -0.234375q0.671875 -0.234375 1.296875 -0.625l0.546875 1.0q-0.65625 0.453125 -1.53125 0.765625q-0.875 0.3125 -1.96875 0.3125zm7.756256 -0.21875l0 -9.0625l1.28125 0l0.125 2.140625l0.046875 0q0.71875 -1.09375 1.765625 -1.734375q1.046875 -0.640625 2.296875 -0.640625q0.5 0 0.9375 0.09375q0.4375 0.078125 0.84375 0.28125l-0.359375 1.328125q-0.453125 -0.171875 -0.796875 -0.234375q-0.328125 -0.078125 -0.875 -0.078125q-1.03125 0 -1.96875 0.59375q-0.9375 0.578125 -1.765625 2.0l0 5.3125l-1.53125 0zm25.637543 0.21875q-0.671875 0 -1.4375 -0.3125q-0.75 -0.328125 -1.375 -0.90625l-0.0625 0l-0.125 1.0l-1.234375 0l0 -13.28125l1.53125 0l0 3.625l-0.0625 1.75l0.0625 0q0.609375 -0.640625 1.421875 -1.015625q0.8125 -0.375 1.625 -0.375q1.21875 0 2.0625 0.578125q0.84375 0.5625 1.265625 1.609375q0.4375 1.03125 0.4375 2.421875q0 1.546875 -0.578125 2.65625q-0.5625 1.09375 -1.5 1.671875q-0.921875 0.578125 -2.03125 0.578125zm-0.234375 -1.28125q0.78125 0 1.40625 -0.421875q0.625 -0.4375 0.984375 -1.25q0.359375 -0.8125 0.359375 -1.9375q0 -0.984375 -0.265625 -1.734375q-0.25 -0.75 -0.8125 -1.171875q-0.5625 -0.421875 -1.46875 -0.421875q-0.625 0 -1.3125 0.328125q-0.671875 0.328125 -1.359375 1.03125l0 4.515625q0.65625 0.578125 1.3125 0.828125q0.671875 0.234375 1.15625 0.234375zm10.053101 1.28125q-0.84375 0 -1.5625 -0.296875q-0.703125 -0.3125 -1.109375 -0.890625q-0.40625 -0.578125 -0.40625 -1.375q0 -1.53125 1.53125 -2.328125q1.53125 -0.796875 5.03125 -1.078125q-0.015625 -0.609375 -0.25 -1.125q-0.234375 -0.53125 -0.765625 -0.828125q-0.515625 -0.3125 -1.390625 -0.3125q-0.578125 0 -1.15625 0.15625q-0.5625 0.15625 -1.078125 0.40625q-0.515625 0.25 -0.9375 0.515625l-0.59375 -1.046875q0.4375 -0.296875 1.078125 -0.609375q0.65625 -0.3125 1.390625 -0.5q0.75 -0.203125 1.5625 -0.203125q1.25 0 2.0625 0.46875q0.8125 0.46875 1.203125 1.296875q0.40625 0.828125 0.40625 1.96875l0 5.5625l-1.25 0l-0.125 -1.234375l-0.0625 0q-0.75 0.59375 -1.6875 1.03125q-0.921875 0.421875 -1.890625 0.421875zm0.40625 -1.21875q0.78125 0 1.546875 -0.359375q0.765625 -0.359375 1.53125 -0.984375l0 -2.390625q-1.9375 0.15625 -3.046875 0.46875q-1.109375 0.296875 -1.578125 0.75q-0.453125 0.453125 -0.453125 1.046875q0 0.515625 0.28125 0.84375q0.28125 0.3125 0.734375 0.46875q0.46875 0.15625 0.984375 0.15625zm7.9281616 1.0l0 -9.0625l1.265625 0l0.140625 1.546875l0.0625 0q0.71875 -0.765625 1.53125 -1.265625q0.828125 -0.515625 1.890625 -0.515625q1.609375 0 2.359375 0.9375q0.765625 0.9375 0.765625 2.71875l0 5.640625l-1.515625 0l0 -5.421875q0 -1.296875 -0.5 -1.921875q-0.484375 -0.625 -1.59375 -0.625q-0.8125 0 -1.453125 0.421875q-0.625 0.40625 -1.421875 1.21875l0 6.328125l-1.53125 0zm11.193726 0l0 -9.0625l1.265625 0l0.140625 1.546875l0.0625 0q0.71875 -0.765625 1.53125 -1.265625q0.828125 -0.515625 1.890625 -0.515625q1.609375 0 2.359375 0.9375q0.765625 0.9375 0.765625 2.71875l0 5.640625l-1.515625 0l0 -5.421875q0 -1.296875 -0.5 -1.921875q-0.484375 -0.625 -1.59375 -0.625q-0.8125 0 -1.453125 0.421875q-0.625 0.40625 -1.421875 1.21875l0 6.328125l-1.53125 0zm15.615662 0.21875q-1.359375 0 -2.46875 -0.546875q-1.109375 -0.5625 -1.765625 -1.640625q-0.65625 -1.078125 -0.65625 -2.578125q0 -1.484375 0.65625 -2.546875q0.65625 -1.0625 1.703125 -1.625q1.0625 -0.578125 2.265625 -0.578125q1.3125 0 2.234375 0.53125q0.921875 0.53125 1.40625 1.484375q0.5 0.953125 0.5 2.25q0 0.25 -0.015625 0.5q-0.015625 0.234375 -0.046875 0.421875l-7.671875 0l0 -1.1875l6.75 0l-0.390625 0.421875q0 -1.59375 -0.734375 -2.390625q-0.734375 -0.8125 -1.984375 -0.8125q-0.84375 0 -1.5625 0.421875q-0.71875 0.40625 -1.15625 1.1875q-0.421875 0.78125 -0.421875 1.921875q0 1.171875 0.46875 1.953125q0.46875 0.78125 1.265625 1.1875q0.796875 0.40625 1.8125 0.40625q0.8125 0 1.46875 -0.234375q0.671875 -0.234375 1.296875 -0.625l0.546875 1.0q-0.65625 0.453125 -1.53125 0.765625q-0.875 0.3125 -1.96875 0.3125zm7.7562256 -0.21875l0 -9.0625l1.28125 0l0.125 2.140625l0.046875 0q0.71875 -1.09375 1.765625 -1.734375q1.046875 -0.640625 2.296875 -0.640625q0.5 0 0.9375 0.09375q0.4375 0.078125 0.84375 0.28125l-0.359375 1.328125q-0.453125 -0.171875 -0.796875 -0.234375q-0.328125 -0.078125 -0.875 -0.078125q-1.03125 0 -1.96875 0.59375q-0.9375 0.578125 -1.765625 2.0l0 5.3125l-1.53125 0zm11.584412 3.28125l-0.828125 -0.78125q1.859375 -1.578125 2.75 -3.453125q0.90625 -1.875 0.90625 -4.234375q0 -2.34375 -0.90625 -4.234375q-0.890625 -1.890625 -2.75 -3.453125l0.828125 -0.78125q1.96875 1.515625 3.078125 3.640625q1.125 2.125 1.125 4.828125q0 2.703125 -1.125 4.828125q-1.109375 2.109375 -3.078125 3.640625z" fill-rule="nonzero"/></g></svg>